<svg width="1080" height="1920" xmlns="http://www.w3.org/2000/svg"><defs>
<linearGradient id="bg" x1="0" y1="0" x2="1" y2="1"><stop offset="0" stop-color="#2A1740"/><stop offset="1" stop-color="#150C24"/></linearGradient>
<linearGradient id="amber" x1="0" y1="0" x2="1" y2="0"><stop offset="0" stop-color="#B07A38"/><stop offset="0.5" stop-color="#8A4F1E"/><stop offset="1" stop-color="#6E3D17"/></linearGradient>
<linearGradient id="av" x1="0" y1="0" x2="1" y2="1"><stop offset="0" stop-color="#C9A8D8"/><stop offset="1" stop-color="#8E6FB0"/></linearGradient>
</defs><rect width="1080" height="1920" fill="url(#bg)"/><rect x="80" y="560" width="920" height="800" rx="44" fill="#FBF9FC"/><circle cx="210" cy="720" r="66" fill="url(#av)"/><text x="210" y="740" text-anchor="middle" font-family="Arial" font-size="56" font-weight="700" fill="#fff">P</text><text x="315" y="705" font-family="Arial" font-size="50" font-weight="700" fill="#1C1E21">Paula</text><text x="315" y="762" font-family="Arial" font-size="34" fill="#6B6675">39 · Córdoba</text><polygon points="330,820 334.6,833.7 349,833.8 337.4,842.4 341.8,856.2 330,847.8 318.2,856.2 322.6,842.4 311,833.8 325.4,833.7" fill="#E6B45A"/><polygon points="382,820 386.6,833.7 401,833.8 389.4,842.4 393.8,856.2 382,847.8 370.2,856.2 374.6,842.4 363,833.8 377.4,833.7" fill="#E6B45A"/><polygon points="434,820 438.6,833.7 453,833.8 441.4,842.4 445.8,856.2 434,847.8 422.2,856.2 426.6,842.4 415,833.8 429.4,833.7" fill="#E6B45A"/><polygon points="486,820 490.6,833.7 505,833.8 493.4,842.4 497.8,856.2 486,847.8 474.2,856.2 478.6,842.4 467,833.8 481.4,833.7" fill="#E6B45A"/><polygon points="538,820 542.6,833.7 557,833.8 545.4,842.4 549.8,856.2 538,847.8 526.2,856.2 530.6,842.4 519,833.8 533.4,833.7" fill="#E6B45A"/><text x="540" y="1010" text-anchor="middle" font-family="Georgia,serif" font-size="62" font-style="italic" font-weight="700" fill="#1C1E21">“Me levanto con</text><text x="540" y="1095" text-anchor="middle" font-family="Georgia,serif" font-size="62" font-style="italic" font-weight="700" fill="#1C1E21">pilas otra vez.”</text></svg>